<?xml version="1.0" encoding="UTF-8" standalone="no"?>
<!-- Created with Inkscape (http://www.inkscape.org/) -->

<svg
   width="100mm"
   height="100mm"
   viewBox="0 0 100 100"
   version="1.1"
   id="svg3374"
   inkscape:version="1.1.2 (b8e25be833, 2022-02-05)"
   sodipodi:docname="cloud2.svg"
   xmlns:inkscape="http://www.inkscape.org/namespaces/inkscape"
   xmlns:sodipodi="http://sodipodi.sourceforge.net/DTD/sodipodi-0.dtd"
   xmlns="http://www.w3.org/2000/svg"
   xmlns:svg="http://www.w3.org/2000/svg">
  <sodipodi:namedview
     id="namedview3376"
     pagecolor="#ffffff"
     bordercolor="#999999"
     borderopacity="1"
     inkscape:pageshadow="0"
     inkscape:pageopacity="0"
     inkscape:pagecheckerboard="0"
     inkscape:document-units="mm"
     showgrid="false"
     inkscape:zoom="0.74029882"
     inkscape:cx="398.48773"
     inkscape:cy="345.80631"
     inkscape:window-width="1920"
     inkscape:window-height="1017"
     inkscape:window-x="-8"
     inkscape:window-y="-8"
     inkscape:window-maximized="1"
     inkscape:current-layer="layer1" />
  <defs
     id="defs3371" />
  <g
     inkscape:label="Vrstva 1"
     inkscape:groupmode="layer"
     id="layer1">
    <path
       id="oblak"
       style="fill:#2a7fff;fill-opacity:0.604651;stroke:none;stroke-width:1.7129;stroke-linejoin:round;stroke-miterlimit:4;stroke-dasharray:none"
       d="M 44.52536,10 C 35.03081,10 26.92364,20.03137 23.46126,34.39107 H 22.38082 C 15.52175,34.39107 10,44.05396 10,56.05712 c 0,12.00317 5.52175,21.66607 12.38082,21.66607 h 5.64675 C 32.18169,85.29358 38.02636,90 44.52536,90 h 9.52331 C 65.36777,90 74.7084,75.7414 76.56471,56.88897 H 77.6192 C 84.47821,56.88897 90,47.22606 90,35.22291 90,23.21974 84.47821,13.55685 77.6192,13.55685 h -5.71509 c -2.08256,0 -4.03985,0.89496 -5.7588,2.47161 C 62.64056,12.20968 58.49819,10 54.04867,10 Z" />
  </g>
</svg>
