<?xml version="1.0" encoding="UTF-8" standalone="no"?>
<!-- Created with Inkscape (http://www.inkscape.org/) -->

<svg
   width="100mm"
   height="100mm"
   viewBox="0 0 100 100"
   version="1.1"
   id="svg3374"
   inkscape:version="1.1.2 (b8e25be833, 2022-02-05)"
   sodipodi:docname="grass.svg"
   xmlns:inkscape="http://www.inkscape.org/namespaces/inkscape"
   xmlns:sodipodi="http://sodipodi.sourceforge.net/DTD/sodipodi-0.dtd"
   xmlns="http://www.w3.org/2000/svg"
   xmlns:svg="http://www.w3.org/2000/svg">
  <sodipodi:namedview
     id="namedview3376"
     pagecolor="#ffffff"
     bordercolor="#999999"
     borderopacity="1"
     inkscape:pageshadow="0"
     inkscape:pageopacity="0"
     inkscape:pagecheckerboard="0"
     inkscape:document-units="mm"
     showgrid="false"
     inkscape:zoom="0.26173516"
     inkscape:cx="848.18562"
     inkscape:cy="-22.923936"
     inkscape:window-width="1920"
     inkscape:window-height="1017"
     inkscape:window-x="-8"
     inkscape:window-y="-8"
     inkscape:window-maximized="1"
     inkscape:current-layer="layer1"
     inkscape:snap-global="false" />
  <defs
     id="defs3371" />
  <g
     inkscape:label="Vrstva 1"
     inkscape:groupmode="layer"
     id="layer1">
    <g
       id="g961">
      <path
         id="path5872-4-0-3"
         style="fill:#447821;stroke-width:0.0683721;stroke-linejoin:round"
         d="M 23.051043,35.893322 C 0.28003449,-27.820213 1.3497641,97.97513 15.445317,86.093691 c 0.003,0.482402 0.0081,0.964542 0.01545,1.446159 h 18.941929 c 0.0073,-0.481617 0.01249,-0.963757 0.01545,-1.446159 C 36.061317,48.864507 28.830458,-54.038285 23.051043,35.893322 Z"
         sodipodi:nodetypes="cccccc" />
      <path
         id="path5872-4-07-7"
         style="fill:#447821;stroke-width:0.0683721;stroke-linejoin:round"
         d="m 46.121161,17.008516 c -35.593026,7.890499 -7.113062,4.143547 -5.348867,68.329784 0.003,0.482401 0.0081,0.964542 0.01545,1.446159 h 18.941928 c 0.0073,-0.481617 0.01249,-0.963758 0.01545,-1.446159 0.07572,-21.836822 3.195431,-124.898444 -13.623955,-68.329784 z"
         sodipodi:nodetypes="cccccc" />
      <path
         id="path5872-4-2-1"
         style="fill:#447821;stroke-width:0.0683721;stroke-linejoin:round"
         d="M 76.087235,42.691863 C 66.717423,14.51197 60.09755,-15.499339 66.600793,81.561345 c 0.003,0.482394 0.0081,0.964542 0.01545,1.446151 H 85.55817 c 0.0073,-0.481617 0.01249,-0.963757 0.01545,-1.446151 0.0075,-21.505188 19.68785,-68.164497 -9.486378,-38.869482 z"
         sodipodi:nodetypes="cccccc" />
      <rect
         style="fill:#5aa02c;fill-opacity:1;stroke:none;stroke-width:0.758519;stroke-linejoin:round;stroke-miterlimit:4;stroke-dasharray:none"
         id="rect5808"
         width="99.225098"
         height="21.096807"
         x="-99.990143"
         y="78.903198"
         transform="scale(-1,1)" />
      <path
         id="path5872-4"
         style="fill:#5aa02c;stroke-width:0.0683721;stroke-linejoin:round"
         d="m 89.265338,51.429225 c 7.176074,-46.6765483 13.496872,16.557858 9.486442,38.869482 1.627,0.482401 -2.264966,0.964542 -2.272306,1.446159 H 79.794405 c -0.0073,-0.481617 -0.01249,-0.963758 -0.01545,-1.446159 -1.7e-5,-21.466995 4.247184,-38.869474 9.48638,-38.869482 z"
         sodipodi:nodetypes="cccccc" />
      <path
         id="path5872-4-0"
         style="fill:#5aa02c;stroke-width:0.0683721;stroke-linejoin:round"
         d="m 60.921337,44.193178 c 12.62088,-21.425866 32.908024,57.665192 11.61792,43.401835 -0.003,0.482401 -0.0081,0.964541 -0.01545,1.446158 H 53.581882 c -0.0073,-0.481617 -0.01249,-0.963757 -0.01545,-1.446158 -1.648681,-37.193966 -3.742923,-99.288598 7.354902,-43.401835 z"
         sodipodi:nodetypes="cccccc" />
      <path
         id="path5872-4-07"
         style="fill:#5aa02c;stroke-width:0.0683721;stroke-linejoin:round"
         d="m 37.725837,47.97014 c 19.574491,-41.857344 23.103585,72.62257 9.486442,38.869482 -0.003,0.482401 -0.0081,0.964541 -0.01545,1.446158 H 28.254904 C 28.247562,87.804163 19.465741,86.566632 19.462783,86.084231 17.541101,58.686667 20.90645,-8.5985203 37.725837,47.97014 Z"
         sodipodi:nodetypes="cccccc" />
      <path
         id="path5872-4-2"
         style="fill:#5aa02c;stroke-width:0.0692802;stroke-linejoin:round"
         d="m 11.062957,42.505212 c 1.972947,26.563456 11.893481,-19.476322 10.307208,36.731023 -0.0032,0.455859 -0.0088,0.911487 -0.01678,1.366591 H 0.77260399 C 0.76462877,80.147714 0.75903372,79.692094 0.75581883,79.236235 0.75026222,58.906736 -4.1472925,-32.303733 11.062957,42.505212 Z"
         sodipodi:nodetypes="cccccc" />
    </g>
  </g>
</svg>
