<?xml version="1.0" encoding="UTF-8" standalone="no"?>
<!-- Created with Inkscape (http://www.inkscape.org/) -->

<svg
   width="100mm"
   height="100mm"
   viewBox="0 0 100 100"
   version="1.1"
   id="svg3374"
   inkscape:version="1.1.2 (b8e25be833, 2022-02-05)"
   sodipodi:docname="ground.svg"
   xmlns:inkscape="http://www.inkscape.org/namespaces/inkscape"
   xmlns:sodipodi="http://sodipodi.sourceforge.net/DTD/sodipodi-0.dtd"
   xmlns="http://www.w3.org/2000/svg"
   xmlns:svg="http://www.w3.org/2000/svg">
  <sodipodi:namedview
     id="namedview3376"
     pagecolor="#ffffff"
     bordercolor="#999999"
     borderopacity="1"
     inkscape:pageshadow="0"
     inkscape:pageopacity="0"
     inkscape:pagecheckerboard="0"
     inkscape:document-units="mm"
     showgrid="false"
     inkscape:zoom="0.26173516"
     inkscape:cx="848.18562"
     inkscape:cy="-22.923936"
     inkscape:window-width="1920"
     inkscape:window-height="1017"
     inkscape:window-x="-8"
     inkscape:window-y="-8"
     inkscape:window-maximized="1"
     inkscape:current-layer="layer1"
     inkscape:snap-global="false" />
  <defs
     id="defs3371" />
  <g
     inkscape:label="Vrstva 1"
     inkscape:groupmode="layer"
     id="layer1">
    <g
       id="g1149">
      <g
         id="g827">
        <rect
           style="fill:#784421;fill-opacity:1;stroke-width:0.434546;stroke-linejoin:round;stroke-miterlimit:4;stroke-dasharray:none"
           id="rect25723"
           width="100"
           height="99.685143"
           x="0"
           y="0"
           ry="49.842571"
           rx="5.5598502" />
      </g>
      <path
         id="rect12572"
         style="fill:#999999;fill-opacity:1;stroke-width:1.01344;stroke-linejoin:round;stroke-miterlimit:4;stroke-dasharray:none"
         d="m 39.806081,23.257018 c -0.451796,-0.02293 -0.869872,0.138083 -1.255552,0.491778 -0.385679,0.353669 -0.738974,0.898974 -1.061312,1.641137 -0.322337,0.74219 -0.613711,1.681925 -0.875487,2.823642 -0.261771,1.141716 -0.493929,2.48582 -0.697913,4.03817 -0.203992,1.552326 -0.379783,3.313 -0.528762,5.286991 -0.148976,1.973992 -0.271169,4.161147 -0.367915,6.567836 -0.09674,2.406689 -0.168031,5.032529 -0.215324,7.882973 -0.04716,2.842239 -0.07025,5.910254 -0.071,9.204706 -0.270237,-2.220096 -0.5703,-4.189833 -0.893817,-5.885975 -0.337609,-1.769998 -0.699838,-3.249843 -1.077518,-4.429417 -0.377681,-1.17955 -0.770802,-2.059211 -1.170221,-2.628031 -0.399417,-0.568794 -0.805154,-0.826976 -1.207979,-0.764737 -0.483388,0.07465 -0.962611,0.61022 -1.421852,1.625648 -0.459241,1.015453 -0.898493,2.511041 -1.30193,4.502357 -0.436776,-3.728755 -0.845796,-6.886804 -1.229533,-9.525205 -0.383738,-2.6384 -0.742176,-4.757736 -1.077881,-6.408708 -0.335702,-1.650945 -0.648665,-2.834188 -0.94134,-3.60053 -0.292672,-0.766341 -0.56506,-1.116112 -0.819705,-1.100723 -0.254645,0.01529 -0.491511,0.39652 -0.713134,1.090762 -0.221622,0.694267 -0.42802,1.702561 -0.621621,2.972833 -0.193604,1.270273 -0.374429,2.802038 -0.545016,4.545439 -0.170586,1.743426 -0.330898,3.698208 -0.483474,5.811939 -0.152572,2.113707 -0.297424,4.386719 -0.43699,6.767854 -0.139565,2.381162 -0.27385,4.869809 -0.405411,7.415499 -0.02489,0.48174 -0.04872,0.985519 -0.07344,1.470927 -0.05969,-0.420392 -0.119393,-0.83258 -0.179024,-1.273125 -0.192303,-1.420635 -0.384185,-2.94784 -0.574725,-4.59736 -0.15327,-1.326881 -0.302995,-2.577179 -0.4494,-3.75306 -0.146406,-1.17588 -0.289453,-2.277216 -0.429304,-3.308771 C 18.539654,49.090288 18.402974,48.129176 18.269367,47.235222 18.135761,46.341293 18.005234,45.513884 17.877562,44.75088 17.74989,43.98785 17.6251,43.288793 17.503051,42.649989 17.381006,42.01121 17.261687,41.432887 17.144954,40.911607 17.02822,40.390352 16.91406,39.926266 16.802331,39.515837 c -0.11173,-0.410432 -0.221042,-0.766801 -0.32808,-1.073109 -0.107036,-0.306306 -0.211819,-0.5625 -0.314472,-0.771384 -0.102653,-0.208911 -0.203169,-0.370357 -0.301749,-0.488468 -0.197161,-0.236169 -0.386486,-0.297644 -0.569216,-0.211201 -0.18273,0.08661 -0.358864,0.320574 -0.529645,0.676357 -0.17078,0.355758 -0.336233,0.833192 -0.497548,1.404611 -0.161314,0.571418 -0.318494,1.236973 -0.472824,1.970475 -0.154331,0.733502 -0.305807,1.534034 -0.455633,2.376041 -0.299658,1.684014 -0.592764,3.532354 -0.889301,5.329002 -0.148269,0.898285 -0.297411,1.784087 -0.448623,2.630222 -0.151213,0.846109 -0.304502,1.65227 -0.46114,2.392625 -0.156638,0.74033 -0.31659,1.413782 -0.481135,1.994755 -0.164545,0.580999 -0.333675,1.069719 -0.508609,1.437807 -0.06734,0.141906 -0.136801,0.211203 -0.208107,0.217827 -0.07131,0.0076 -0.144499,-0.04993 -0.219378,-0.16356 C 10.041991,57.124208 9.9654252,56.954177 9.8873656,56.736122 9.8093056,56.518041 9.729776,56.252114 9.6489274,55.944839 9.4872303,55.330288 9.3203265,54.551947 9.1498228,53.672667 8.9793185,52.793413 8.8051875,51.812711 8.6290084,50.791576 8.2766501,48.749281 7.9161219,46.546329 7.559854,44.673532 7.38172,43.737134 7.2046245,42.883484 7.0302107,42.1737 6.943004,41.818809 6.85648,41.499585 6.7707905,41.224385 6.6851009,40.949184 6.6002406,40.717167 6.5164599,40.536996 6.4326791,40.356875 6.3499459,40.228803 6.2684655,40.159049 c -0.08148,-0.06981 -0.1616749,-0.08153 -0.2404637,-0.02548 -0.078789,0.05605 -0.1561367,0.178846 -0.2318422,0.37573 -0.075706,0.197191 -0.1497953,0.468698 -0.2220263,0.822212 -0.072231,0.353567 -0.1425993,0.789781 -0.2109642,1.315138 -0.068365,0.525355 -0.1347037,1.139702 -0.198811,1.852212 -0.064107,0.712508 -0.1260052,1.522899 -0.1854634,2.437923 -0.059458,0.915049 -0.1165038,1.934961 -0.1709213,3.067888 -0.054417,1.1329 -0.1061991,2.379173 -0.1551848,3.745289 -0.048985,1.366142 -0.095143,2.852278 -0.1383055,4.466995 -0.043162,1.614719 -0.083337,3.357483 -0.1202837,5.236139 -0.036947,1.878658 -0.070675,3.893794 -0.1010155,6.051753 -0.030341,2.157959 -0.057262,4.45892 -0.080605,6.911544 -0.016876,1.773157 0.1598909,14.425519 0.1468491,16.359588 L 5.1491798,100 25.974488,99.685095 c -0.0051,-0.361286 -0.0088,-0.733985 -0.01563,-1.080826 0.0069,0.346841 0.01055,0.71954 0.01563,1.080826 H 39.327232 57.645941 74.37738 94.44015 c -0.05641,-3.27993 -0.106982,-6.723193 -0.17492,-9.682141 -0.113289,-4.933985 -0.242203,-9.432036 -0.38552,-13.5313 -0.143319,-4.099265 -0.301026,-7.799715 -0.471839,-11.136509 -0.170812,-3.33677 -0.354742,-6.310597 -0.550522,-8.95715 -0.195778,-2.646552 -0.403407,-4.965831 -0.621623,-6.994418 -0.218214,-2.028589 -0.446971,-3.766512 -0.685086,-5.249414 -0.238118,-1.482875 -0.485583,-2.710474 -0.741076,-3.719889 -0.25549,-1.009466 -0.519042,-1.799858 -0.789374,-2.408115 -0.270335,-0.608233 -0.547449,-1.034662 -0.830093,-1.31399 -0.282647,-0.279328 -0.570805,-0.411705 -0.863228,-0.434328 -0.58485,-0.04534 -1.186752,0.350611 -1.79553,0.898489 -0.608789,0.547879 -1.224452,1.247241 -1.836924,1.810202 -0.612474,0.56296 -1.221743,0.989109 -1.817658,0.989109 -1.332275,0 -2.56448,0.167129 -3.694464,0.566936 -1.129993,0.399959 -2.15777,1.033566 -3.081259,1.967138 -0.923499,0.933596 -1.742693,2.16662 -2.455484,3.767428 -0.3564,0.800404 -0.686189,1.693237 -0.98912,2.685481 -0.302936,0.99227 -0.57902,2.083643 -0.827965,3.284465 -0.247895,1.195778 -0.468551,2.500826 -0.662394,3.919959 l -0.344697,-4.673663 c -0.116268,-1.576324 -0.242654,-3.061697 -0.377885,-4.453697 -0.135233,-1.392026 -0.279317,-2.690499 -0.43107,-3.893411 -0.303513,-2.405798 -0.637634,-4.42873 -0.992603,-6.049537 -0.354962,-1.620806 -0.730771,-2.839309 -1.11766,-3.637012 -0.386891,-0.797678 -0.784901,-1.174225 -1.184191,-1.110661 -0.418308,0.06649 -0.83804,0.616259 -1.248024,1.670971 -0.40998,1.054739 -0.810194,2.614682 -1.189385,4.701255 L 56.503554,81.4945 C 56.309979,79.09808 56.107342,76.808481 55.896162,74.63381 55.651984,72.119278 55.397195,69.749275 55.134264,67.515599 54.871332,65.281923 54.600302,63.183682 54.32375,61.214097 53.77065,57.274956 53.195406,53.847667 52.618641,50.864464 52.041869,47.881262 51.463535,45.342731 50.904181,43.181536 50.344817,41.020367 49.80444,39.236101 49.303566,37.763034 48.301811,34.816899 47.458105,33.113039 46.936737,32.115776 45.44863,29.269333 44.117786,27.078941 42.933042,25.587735 41.748304,24.096504 40.709679,23.304633 39.806081,23.256967 Z m -19.49241,39.809343 c 0.05905,0.415782 0.118108,0.822543 0.177154,1.223395 -0.05907,-0.396954 -0.118088,-0.807613 -0.177154,-1.223395 z"
         sodipodi:nodetypes="sssscssscssssscssscssssssccssssssssssccssssccssccscsccsssccsccssssssssscccccccccssssssssssssssssssccssssssccssssssssssccc" />
    </g>
  </g>
</svg>
