<svg width="99" height="86" viewBox="0 0 99 86" fill="none" xmlns="http://www.w3.org/2000/svg">
<path d="M76.9817 39.6354C66.4359 36.0354 55.5828 34.1354 49.2348 34.9354C42.4773 34.2354 31.9314 36.0354 21.4879 39.6354C6.43696 45.1354 -2.88028 52.4354 0.80566 56.4354C4.4916 60.4354 19.5425 59.0354 34.5934 53.5354C40.6343 51.3354 45.856 48.8354 49.6444 46.6354C53.4327 49.2354 58.6544 51.3354 64.6953 53.5354C79.7462 59.0354 94.6947 60.1354 98.4831 56.4354C101.35 52.4354 92.0327 44.7354 76.9817 39.6354Z" fill="#BBE2F2"/>
<path d="M48.8253 39.9354C59.1734 39.9354 67.5621 34.0703 67.5621 26.8354C67.5621 19.6005 59.1734 13.7354 48.8253 13.7354C38.4772 13.7354 30.0884 19.6005 30.0884 26.8354C30.0884 34.0703 38.4772 39.9354 48.8253 39.9354Z" fill="black" stroke="black" stroke-miterlimit="10"/>
<path d="M36.0269 17.3354C40.9415 13.3354 40.9415 7.83538 36.0269 4.53538C30.0884 0.235378 16.8805 -0.464622 8.27994 4.23538" stroke="black" stroke-miterlimit="10"/>
<path d="M61.2141 17.3354C56.2996 13.3354 56.2996 7.83538 61.2141 4.53538C67.255 0.235378 80.3605 -0.464622 89.3706 4.23538" stroke="black" stroke-miterlimit="10"/>
<path d="M73.603 56.4354C73.603 53.8354 73.1934 51.7354 72.8863 49.5354H24.4571C24.0476 51.7354 23.7404 54.2354 23.7404 56.4354H73.603Z" fill="#FCEA10" stroke="black" stroke-miterlimit="10"/>
<path d="M73.603 56.4354H23.638C23.638 59.0354 24.0476 61.1354 24.3547 63.7354H72.3743C73.1934 61.5354 73.603 58.9354 73.603 56.4354Z" fill="#FCEA10" stroke="black" stroke-miterlimit="10"/>
<path d="M48.8253 28.3354C37.1531 28.3354 27.4263 37.1354 24.7643 49.5354H72.7839C69.8147 37.4354 60.0879 28.3354 48.8253 28.3354Z" fill="#FCEA10" stroke="black" stroke-miterlimit="10"/>
<path d="M72.4767 63.7354H24.4571C25.1738 66.3354 25.9929 68.8354 27.1192 71.0354H69.917C71.3504 68.8354 72.0671 66.2354 72.4767 63.7354Z" fill="#FCEA10" stroke="black" stroke-miterlimit="10"/>
<path d="M32.6481 77.9354C37.1531 81.9354 42.3749 84.5354 48.8253 84.5354C55.1733 84.5354 60.4974 81.9354 65.0024 77.9354H32.6481Z" fill="#FCEA10" stroke="black" stroke-miterlimit="10"/>
<path d="M69.8147 71.0354H27.4264C28.9622 73.6354 30.8051 76.1354 32.6481 78.3354H64.5929C66.8454 76.1354 68.6884 73.5354 69.8147 71.0354Z" fill="#FCEA10" stroke="black" stroke-miterlimit="10"/>
</svg>
